<svg width="119" height="54" viewBox="0 0 119 54" fill="none" xmlns="http://www.w3.org/2000/svg">
<g clip-path="url(#clip0_197_9213)">
<path d="M7.27194 22.8071L3.33894 23.1001C0.128945 23.3321 -5.50831e-05 20.5551 -5.50831e-05 19.0271C-0.0100551 15.9571 1.09994 14.8611 3.07194 14.8611H18.5439C20.0719 14.8611 21.2039 15.3751 21.6509 17.5681C22.1439 20.0231 21.9579 21.7341 19.2509 21.9271L14.3899 22.2821C17.9719 45.4341 38.8579 52.9821 50.2339 28.0341C52.1199 23.9111 52.7159 23.1571 54.7939 23.6801C57.5869 24.3931 57.9689 25.8801 56.6289 30.0241C51.8589 44.9591 41.6119 53.3671 31.5909 53.3671C20.9739 53.3671 10.6069 43.9321 7.27194 22.8071ZM97.9639 46.2301C97.0399 45.9291 96.1927 45.4298 95.4819 44.7671C94.8357 44.1407 94.3468 43.3704 94.0549 42.5191C93.7451 41.6118 93.5913 40.6587 93.5999 39.7001V27.1001C93.5878 26.9067 93.6084 26.7126 93.6609 26.5261C93.7139 26.3973 93.8041 26.2873 93.9199 26.2101C94.5139 25.9449 95.1663 25.8374 95.8139 25.8981C96.4527 25.8341 97.097 25.9422 97.6799 26.2111C97.7952 26.3267 97.8828 26.467 97.9363 26.6212C97.9898 26.7755 98.0078 26.9399 97.9889 27.1021V39.6391C97.9812 40.0999 98.0488 40.559 98.1889 40.9981C98.3181 41.3967 98.539 41.7594 98.8339 42.0571C99.1496 42.3664 99.5331 42.5979 99.9539 42.7331C100.49 42.9053 101.05 42.9858 101.613 42.9711C102.397 43.0085 103.177 42.8329 103.869 42.4631C104.387 42.1852 104.782 41.723 104.975 41.1681C105.142 40.6775 105.228 40.1632 105.23 39.6451V27.1001C105.229 26.9043 105.263 26.71 105.33 26.5261C105.382 26.3974 105.472 26.2873 105.587 26.2101C106.183 25.9449 106.837 25.8374 107.487 25.8981C108.125 25.8341 108.769 25.9422 109.351 26.2111C109.466 26.3266 109.554 26.4668 109.607 26.6212C109.66 26.7756 109.678 26.94 109.658 27.1021V39.7001C109.667 40.6604 109.514 41.6153 109.203 42.5241C108.902 43.3709 108.405 44.1349 107.754 44.7541C107.045 45.4228 106.199 45.9286 105.274 46.2361L105.264 46.2301C102.886 46.9488 100.349 46.9488 97.9719 46.2301H97.9639ZM114.701 46.1401C114.589 46.0249 114.503 45.8865 114.45 45.7346C114.397 45.5828 114.378 45.4211 114.394 45.2611V27.1001C114.381 26.9103 114.403 26.7198 114.459 26.5381C114.514 26.4128 114.601 26.3044 114.712 26.2241C115.305 25.95 115.962 25.8409 116.612 25.9081C117.251 25.8375 117.898 25.9469 118.478 26.2241C118.589 26.3044 118.676 26.4128 118.731 26.5381C118.792 26.7193 118.819 26.9101 118.81 27.1011V45.2501C118.819 45.4384 118.792 45.6267 118.731 45.8051C118.674 45.9333 118.587 46.0463 118.478 46.1351C117.896 46.4164 117.246 46.526 116.604 46.4511C115.953 46.5252 115.294 46.4179 114.7 46.1411L114.701 46.1401ZM79.8639 46.1321C79.7417 46.0207 79.6478 45.8818 79.5902 45.7268C79.5326 45.5717 79.513 45.4052 79.5329 45.2411V29.7581H74.6159C74.3145 29.7835 74.0115 29.7326 73.7349 29.6101C73.6166 29.541 73.529 29.4294 73.4899 29.2981C73.4358 29.1142 73.4072 28.9237 73.4049 28.7321C73.4056 28.3096 73.4427 27.8881 73.5159 27.4721C73.5647 27.1332 73.6684 26.8046 73.8229 26.4991C73.8725 26.3975 73.9425 26.3072 74.0285 26.2339C74.1145 26.1606 74.2148 26.1058 74.3229 26.0731C74.5807 26.0016 74.8475 25.968 75.1149 25.9731H88.8589C89.0529 25.9681 89.247 25.9798 89.4389 26.0081C89.5472 26.026 89.6512 26.0637 89.7459 26.1191C89.8595 26.1928 89.9425 26.305 89.9799 26.4351C90.0265 26.6128 90.047 26.7964 90.0409 26.9801C90.0313 27.3626 89.9942 27.7439 89.9299 28.1211C89.8845 28.5061 89.781 28.882 89.6229 29.2361C89.5772 29.3341 89.5121 29.4219 89.4315 29.4941C89.3509 29.5663 89.2565 29.6214 89.1539 29.6561C88.8936 29.7286 88.6241 29.7622 88.3539 29.7561H83.9429V45.2501C83.9499 45.4381 83.9239 45.626 83.8659 45.8051C83.815 45.9343 83.7312 46.048 83.6229 46.1351V46.1411C83.0429 46.411 82.3994 46.5149 81.7639 46.4411C81.1147 46.5137 80.4579 46.4072 79.8649 46.1331L79.8639 46.1321ZM53.5629 5.88506C53.5427 5.11918 53.6761 4.35701 53.9552 3.64352C54.2343 2.93003 54.6535 2.27967 55.1881 1.73082C55.7226 1.18197 56.3617 0.74575 57.0676 0.447894C57.7734 0.150038 58.5318 -0.00341797 59.2979 -0.00341797C60.0641 -0.00341797 60.8225 0.150038 61.5283 0.447894C62.2342 0.74575 62.8733 1.18197 63.4078 1.73082C63.9424 2.27967 64.3616 2.93003 64.6407 3.64352C64.9198 4.35701 65.0532 5.11918 65.0329 5.88506C65.0532 6.65093 64.9198 7.4131 64.6407 8.12659C64.3616 8.84008 63.9424 9.49044 63.4078 10.0393C62.8733 10.5881 62.2342 11.0244 61.5283 11.3222C60.8225 11.6201 60.0641 11.7735 59.2979 11.7735C58.5318 11.7735 57.7734 11.6201 57.0676 11.3222C56.3617 11.0244 55.7226 10.5881 55.1881 10.0393C54.6535 9.49044 54.2343 8.84008 53.9552 8.12659C53.6761 7.4131 53.5427 6.65093 53.5629 5.88506Z" fill="white"/>
</g>
<defs>
<clipPath id="clip0_197_9213">
<rect width="118.806" height="53.367" fill="white"/>
</clipPath>
</defs>
</svg>
